<svg id="Capa_1" enable-background="new 0 0 512 512" height="512" viewBox="0 0 512 512" width="512" xmlns="http://www.w3.org/2000/svg"><g><path d="m488.468 152.307h-80.161c-4.142 0-7.5 3.358-7.5 7.5s3.358 7.5 7.5 7.5h80.161c4.705 0 8.532 3.828 8.532 8.532v160.322c0 4.705-3.828 8.532-8.532 8.532h-136.275c-4.142 0-7.5 3.358-7.5 7.5v136.274c0 4.705-3.828 8.532-8.532 8.532h-72.661v-233.374c30.309-.589 60.776-14.2 84.663-38.087 25.971-25.971 39.804-59.717 37.951-92.585-.215-3.81-3.256-6.851-7.066-7.066-32.865-1.84-66.613 11.979-92.585 37.951-25.897 25.897-39.721 59.524-37.962 92.302v85.038l-82.927-82.928c-2.929-2.929-7.678-2.929-10.606 0-2.929 2.929-2.929 7.678 0 10.606l40.832 40.834c-18.827-3.502-37.49-13.442-52.37-28.323-18.077-18.076-28.862-41.729-29.676-64.486 22.756.815 46.411 11.601 64.486 29.676 6.453 6.454 12.017 13.606 16.536 21.26 2.106 3.567 6.705 4.751 10.271 2.645s4.751-6.705 2.645-10.271c-5.16-8.739-11.5-16.895-18.846-24.239-23.253-23.253-53.469-35.631-82.934-33.977-3.81.215-6.851 3.256-7.066 7.066-1.66 29.453 10.724 59.682 33.977 82.934 21.869 21.87 49.907 34.125 77.668 34.125.565 0 1.129-.014 1.693-.024l26.672 26.672c5.614 5.614 8.974 12.877 9.644 20.696v123.556h-72.661c-4.705 0-8.532-3.828-8.532-8.532v-136.275c0-4.142-3.358-7.5-7.5-7.5h-136.275c-4.705 0-8.532-3.828-8.532-8.532v-160.322c0-4.705 3.828-8.532 8.532-8.532h136.274c4.142 0 7.5-3.358 7.5-7.5v-136.275c0-4.705 3.828-8.532 8.532-8.532h160.322c4.705 0 8.532 3.828 8.532 8.532v80.158c0 4.142 3.358 7.5 7.5 7.5s7.5-3.358 7.5-7.5v-80.158c.001-12.975-10.555-23.532-23.531-23.532h-160.322c-12.976 0-23.532 10.557-23.532 23.532v128.774h-128.775c-12.975.001-23.532 10.557-23.532 23.533v160.322c0 12.976 10.557 23.532 23.532 23.532h128.774v128.774c0 12.976 10.557 23.532 23.532 23.532h160.322c12.976 0 23.532-10.557 23.532-23.532v-128.774h128.774c12.976 0 23.532-10.557 23.532-23.532v-160.322c.002-12.976-10.555-23.532-23.53-23.532zm-191.399 22.137c20.766-20.765 48.035-33.048 74.176-33.689-.641 26.141-12.924 53.411-33.689 74.176-17.694 17.693-40.109 29.222-62.525 32.644l42.385-42.385c2.929-2.929 2.929-7.678 0-10.606-2.929-2.929-7.678-2.929-10.606 0l-42.385 42.385c3.422-22.416 14.951-44.832 32.644-62.525z"/></g></svg>