<?xml version="1.0" encoding="UTF-8"?>
<svg xmlns="http://www.w3.org/2000/svg" id="Icons" viewBox="0 0 74 74" width="512" height="512"><path d="M37,72a31,31,0,0,1,0-62,30.138,30.138,0,0,1,4.666.362,1,1,0,1,1-.312,1.976A28.09,28.09,0,0,0,37,12a29.028,29.028,0,1,0,21.722,9.8A1.018,1.018,0,0,1,58.77,20.4a.981.981,0,0,1,1.377.006l.03.03A31,31,0,0,1,37,72Z"/><path d="M59.48,22.14h-.01a1,1,0,1,1,.01,0Z"/><path d="M37,27.51a51.694,51.694,0,0,1-12.92-1.6,1.065,1.065,0,0,1-.128-.042,43.452,43.452,0,0,1-9.867-3.829,1,1,0,0,1,.435-1.9,1.038,1.038,0,0,1,.486.121,41.452,41.452,0,0,0,9.57,3.7.942.942,0,0,1,.133.044,51.16,51.16,0,0,0,21.766.622,1,1,0,1,1,.37,1.966A53.375,53.375,0,0,1,37,27.51Z"/><path d="M59.481,61.862a1,1,0,0,1-.474-.12A46.4,46.4,0,0,0,37,56.488a46.4,46.4,0,0,0-22.007,5.254,1,1,0,0,1-.951-1.76A48.4,48.4,0,0,1,37,54.488a48.4,48.4,0,0,1,22.958,5.494,1,1,0,0,1-.477,1.88Z"/><path d="M37,72c-5.619,0-10.712-5.468-13.623-14.627-.008-.025-.015-.049-.021-.074A54.717,54.717,0,0,1,21,41a54.679,54.679,0,0,1,2.358-16.3c0-.024.012-.047.019-.07C26.288,15.468,31.381,10,37,10a1,1,0,0,1,0,2c-4.622,0-9.1,5.046-11.7,13.173-.006.024-.012.048-.019.071A52.629,52.629,0,0,0,23,41a52.629,52.629,0,0,0,2.283,15.756c.008.025.014.05.02.075C27.9,64.956,32.379,70,37,70s9.1-5.046,11.7-13.173c.006-.024.012-.048.019-.071A52.629,52.629,0,0,0,51,41a56.588,56.588,0,0,0-.6-8.312,1.125,1.125,0,0,1-.011-.153,1,1,0,0,1,1.724-.695,1.016,1.016,0,0,1,.277.63A58.645,58.645,0,0,1,53,41a54.679,54.679,0,0,1-2.358,16.3c-.005.024-.012.047-.019.07C47.712,66.532,42.619,72,37,72Z"/><path d="M37,72a1,1,0,0,1-1-1V11a1,1,0,0,1,2,0V71A1,1,0,0,1,37,72Z"/><path d="M67,42H7a1,1,0,0,1,0-2H67a1,1,0,0,1,0,2Z"/><path d="M51.739,34a1,1,0,0,1-.8-.4C50.507,33.029,40.3,19.464,40.3,13.435a11.435,11.435,0,0,1,22.87,0c0,6.029-10.2,19.594-10.637,20.168A1,1,0,0,1,51.739,34Zm0-30A9.446,9.446,0,0,0,42.3,13.435c0,4.08,6.209,13.452,9.435,17.885,3.226-4.433,9.435-13.8,9.435-17.885A9.446,9.446,0,0,0,51.739,4Z"/><path d="M51.739,20.382a6.668,6.668,0,1,1,6.668-6.668A6.676,6.676,0,0,1,51.739,20.382Zm0-11.336a4.668,4.668,0,1,0,4.668,4.668A4.675,4.675,0,0,0,51.739,9.046Z"/></svg>
